<?xml version="1.0" encoding="UTF-8" standalone="no"?>
<svg
   xmlns:dc="http://purl.org/dc/elements/1.1/"
   xmlns:cc="http://creativecommons.org/ns#"
   xmlns:rdf="http://www.w3.org/1999/02/22-rdf-syntax-ns#"
   xmlns:svg="http://www.w3.org/2000/svg"
   xmlns="http://www.w3.org/2000/svg"
   id="svg909"
   version="1.1"
   viewBox="0 0 105.83333 105.83333"
   height="400"
   width="400">
  <defs
     id="defs903" />
  <metadata
     id="metadata906">
    <rdf:RDF>
      <cc:Work
         rdf:about="">
        <dc:format>image/svg+xml</dc:format>
        <dc:type
           rdf:resource="http://purl.org/dc/dcmitype/StillImage" />
        <dc:title></dc:title>
      </cc:Work>
    </rdf:RDF>
  </metadata>
  <g
     transform="translate(0,-191.16667)"
     id="layer1">
    <path
       id="path1067-2-2-9-6-0"
       d="M -8.3333333e-5,191.16671 V 296.99997 H 105.83342 V 191.16671 Z M 24.678617,194.83671 h 56.4625 c -4.0111,2.9817 -8.0861,7.5147 -10.6866,11.9174 -3.9521,6.6915 -5.0296,12.5126 -4.2501,22.9605 0.2506,3.3592 0.2392,3.858 -0.1179,5.2235 -0.2172,0.8304 -0.8159,2.24556 -1.3298,3.14486 -0.854,1.4941 -1.5875,2.5143 -4.949,6.8819 -3.7284,4.8441 -3.3307,7.4614 1.3449,8.8539 1.6425,0.4891 2.5116,1.215 2.9195,2.4385 0.2886,0.8653 0.1001,1.6571 -0.7282,3.0715 -0.3243,0.5535 -0.5895,1.2645 -0.5895,1.5802 0,0.7309 0.7398,1.6792 1.4487,1.8571 l 0.5478,0.1377 -0.5808,1.0889 c -0.7665,1.4372 -0.6019,1.9964 0.9524,3.2367 1.6991,1.356 2.0487,2.0617 1.8612,3.7592 -0.5638,5.0975 -0.4532,5.8793 1.068,7.5296 1.1983,1.3 2.4245,2.0021 4.2447,2.4311 1.8952,0.4466 3.4605,0.4425 6.6321,-0.018 3.4099,-0.4951 6.8455,-0.5107 7.9293,-0.035 0.4576,0.2006 1.3357,0.976 1.9742,1.743 2.0861,2.5067 3.5501,5.4381 4.524,9.0569 0.1711,0.6356 0.2936,1.1307 0.3817,1.6349 h -81.657 c 0.089,-0.5042 0.2107,-0.9993 0.3817,-1.6349 0.9738,-3.6188 2.4379,-6.5502 4.5239,-9.0569 0.6383,-0.767 1.5167,-1.5424 1.9741,-1.743 1.0838,-0.475 4.5191,-0.4594 7.929,0.035 3.1718,0.4608 4.7372,0.465 6.6326,0.018 1.8203,-0.429 3.0459,-1.1311 4.2442,-2.4311 1.5214,-1.6503 1.6324,-2.4321 1.0684,-7.5296 -0.1875,-1.6975 0.1621,-2.4032 1.8613,-3.7592 1.5543,-1.2403 1.7189,-1.7995 0.9523,-3.2367 l -0.5807,-1.0889 0.5475,-0.1377 c 0.709,-0.1779 1.4488,-1.1262 1.4488,-1.8571 0,-0.3157 -0.2655,-1.0267 -0.5896,-1.5802 -0.8284,-1.4144 -1.0166,-2.2062 -0.7281,-3.0715 0.408,-1.2235 1.2772,-1.9494 2.9195,-2.4385 4.6758,-1.3925 5.0734,-4.0098 1.3451,-8.8539 -3.3615,-4.3676 -4.0951,-5.3878 -4.9491,-6.8819 -0.5139,-0.8993 -1.1125,-2.31446 -1.3297,-3.14486 -0.3566,-1.3655 -0.3679,-1.8643 -0.1178,-5.2235 0.7794,-10.4479 -0.298,-16.269 -4.2503,-22.9605 -2.6006,-4.4027 -6.6755,-8.9357 -10.6865,-11.9174 z"
       style="opacity:1;fill:#ffffff;fill-opacity:1;stroke:none;stroke-width:5.12029028;stroke-linecap:butt;stroke-linejoin:miter;stroke-miterlimit:4;stroke-dasharray:none;stroke-opacity:0.30660376" />
  </g>
</svg>
