<?xml version="1.0" encoding="UTF-8" standalone="no"?>
<svg
   xmlns:dc="http://purl.org/dc/elements/1.1/"
   xmlns:cc="http://creativecommons.org/ns#"
   xmlns:rdf="http://www.w3.org/1999/02/22-rdf-syntax-ns#"
   xmlns:svg="http://www.w3.org/2000/svg"
   xmlns="http://www.w3.org/2000/svg"
   xmlns:sodipodi="http://sodipodi.sourceforge.net/DTD/sodipodi-0.dtd"
   xmlns:inkscape="http://www.inkscape.org/namespaces/inkscape"
   id="svg1531"
   version="1.1"
   viewBox="0 0 151.87083 26.458335"
   height="100"
   width="574"
   sodipodi:docname="logo_texto_blanco.svg"
   inkscape:version="0.92.4 (f8dce91, 2019-08-02)">
  <sodipodi:namedview
     pagecolor="#ffffff"
     bordercolor="#666666"
     borderopacity="1"
     objecttolerance="10"
     gridtolerance="10"
     guidetolerance="10"
     inkscape:pageopacity="0"
     inkscape:pageshadow="2"
     inkscape:window-width="1853"
     inkscape:window-height="1025"
     id="namedview12"
     showgrid="false"
     inkscape:zoom="0.875"
     inkscape:cx="290.14404"
     inkscape:cy="94.803817"
     inkscape:window-x="1987"
     inkscape:window-y="27"
     inkscape:window-maximized="1"
     inkscape:current-layer="svg1531" />
  <defs
     id="defs1525" />
  <metadata
     id="metadata1528">
    <rdf:RDF>
      <cc:Work
         rdf:about="">
        <dc:format>image/svg+xml</dc:format>
        <dc:type
           rdf:resource="http://purl.org/dc/dcmitype/StillImage" />
        <dc:title></dc:title>
      </cc:Work>
    </rdf:RDF>
  </metadata>
  <g
     id="g857"
     transform="matrix(0.6260816,0,0,0.6260816,39.586911,37.035547)"
     style="fill:#ffffff">
    <g
       id="g847"
       style="fill:#ffffff">
      <path
         inkscape:connector-curvature="0"
         id="path1104-3"
         style="font-style:normal;font-variant:normal;font-weight:bold;font-stretch:normal;font-size:42.33333206px;line-height:1.10000002;font-family:'Big John';-inkscape-font-specification:'Big John Bold';letter-spacing:0px;word-spacing:0px;fill:#ffffff;fill-opacity:1;stroke:none;stroke-width:0.26311961"
         d="m -63.11796,-16.894405 h 11.0856 v -42.2038 h -11.0856 z" />
      <path
         inkscape:connector-curvature="0"
         id="path1106-7"
         style="font-style:normal;font-variant:normal;font-weight:bold;font-stretch:normal;font-size:42.33333206px;line-height:1.10000002;font-family:'Big John';-inkscape-font-specification:'Big John Bold';letter-spacing:0px;word-spacing:0px;fill:#ffffff;fill-opacity:1;stroke:none;stroke-width:0.26311961"
         d="m -7.9345598,-16.894405 v -42.2038 H -19.02016 v 19.9202 l -19.9764,-19.9202 h -4.5018 v 42.2038 h 11.0856 v -19.9764 l 19.92021,19.9764 z" />
      <path
         inkscape:connector-curvature="0"
         id="path1108-5"
         style="font-style:normal;font-variant:normal;font-weight:bold;font-stretch:normal;font-size:42.33333206px;line-height:1.10000002;font-family:'Big John';-inkscape-font-specification:'Big John Bold';letter-spacing:0px;word-spacing:0px;fill:#ffffff;fill-opacity:1;stroke:none;stroke-width:0.29191878"
         d="m 31.898644,-46.155705 c 0,-7.2028 -7.134,-12.9425 -15.999701,-12.9425 -8.8661978,0 -15.93099877,5.796 -15.93099877,12.9987 0,7.2029 7.06480097,12.942601 15.93099877,12.942601 2.146901,0 3.947901,1.463099 3.947901,3.207499 0,1.744401 -1.801,3.151301 -3.947901,3.151301 -2.147199,0 -3.878799,-1.4069 -3.878799,-3.207501 H -0.10135577 c 0,7.427902 7.13410097,13.1112 16.00029877,13.1112 8.865701,0 15.999701,-5.739699 15.999701,-12.942398 0,-3.095002 -1.246698,-5.908502 -3.462999,-8.159502 -2.909199,-3.0387 -7.4808,-5.0081 -12.536702,-5.0081 -2.147199,0 -3.878799,-1.4069 -3.878799,-3.1513 0,-1.7444 1.7316,-3.2075 3.878799,-3.2075 2.146901,0 3.947901,1.4631 3.947901,3.2075 z" />
      <path
         inkscape:connector-curvature="0"
         id="path1110-2"
         style="font-style:normal;font-variant:normal;font-weight:bold;font-stretch:normal;font-size:42.33333206px;line-height:1.10000002;font-family:'Big John';-inkscape-font-specification:'Big John Bold';letter-spacing:0px;word-spacing:0px;fill:#ffffff;fill-opacity:1;stroke:none;stroke-width:0.26311961"
         d="m 38.863843,-48.125205 h 10.973 v 31.2309 h 11.0856 v -31.2309 h 11.1981 v -11.0293 h -33.2567 z" />
      <path
         inkscape:connector-curvature="0"
         id="path1112-2"
         style="font-style:normal;font-variant:normal;font-weight:bold;font-stretch:normal;font-size:42.33333206px;line-height:1.10000002;font-family:'Big John';-inkscape-font-specification:'Big John Bold';letter-spacing:0px;word-spacing:0px;fill:#ffffff;fill-opacity:1;stroke:none;stroke-width:0.26311961"
         d="m 79.713743,-16.894305 h 11.0856 v -42.2039 h -11.0856 z" />
      <path
         inkscape:connector-curvature="0"
         id="path1114-8"
         style="font-style:normal;font-variant:normal;font-weight:bold;font-stretch:normal;font-size:42.33333206px;line-height:1.10000002;font-family:'Big John';-inkscape-font-specification:'Big John Bold';letter-spacing:0px;word-spacing:0px;fill:#ffffff;fill-opacity:1;stroke:none;stroke-width:0.26311961"
         d="m 107.60534,-16.894305 2.5322,-5.5147 h 17.2754 l 2.5885,5.5147 h 11.0856 l -19.864,-42.2039 h -5.0082 l -19.695097,42.2039 z m 11.198,-24.1406 4.2766,9.284802 h -8.6096 z" />
      <path
         inkscape:connector-curvature="0"
         id="path1116-9"
         style="font-style:normal;font-variant:normal;font-weight:bold;font-stretch:normal;font-size:42.33333206px;line-height:1.10000002;font-family:'Big John';-inkscape-font-specification:'Big John Bold';letter-spacing:0px;word-spacing:0px;fill:#ffffff;fill-opacity:1;stroke:none;stroke-width:0.26311961"
         d="m 179.11964,-52.964605 c -3.8264,-3.8265 -9.05959,-6.1336 -14.8557,-6.1336 -11.64829,0 -21.102,9.4537 -21.102,21.1019 0,11.6483 9.45371,21.102 21.102,21.102 5.85231,0 11.1418,-2.419699 14.9683,-6.246199 l -7.8781,-7.765499 c -1.74439,1.800698 -4.22039,2.813597 -7.0902,2.813597 -5.7398,0 -9.9038,-4.164099 -9.9038,-9.903899 0,-5.7397 4.164,-9.9038 9.9038,-9.9038 2.86981,0 5.34581,1.0129 7.0902,2.7573 z" />
    </g>
  </g>
</svg>
