<?xml version="1.0" encoding="UTF-8" standalone="no"?>
<svg
   xmlns:dc="http://purl.org/dc/elements/1.1/"
   xmlns:cc="http://creativecommons.org/ns#"
   xmlns:rdf="http://www.w3.org/1999/02/22-rdf-syntax-ns#"
   xmlns:svg="http://www.w3.org/2000/svg"
   xmlns="http://www.w3.org/2000/svg"
   xmlns:sodipodi="http://sodipodi.sourceforge.net/DTD/sodipodi-0.dtd"
   xmlns:inkscape="http://www.inkscape.org/namespaces/inkscape"
   id="svg8"
   version="1.1"
   viewBox="0 0 484.45207 105.83333"
   height="400"
   width="1831"
   sodipodi:docname="logo_texto_largo_blanco.svg"
   inkscape:version="0.92.4 (f8dce91, 2019-08-02)">
  <sodipodi:namedview
     pagecolor="#ffffff"
     bordercolor="#666666"
     borderopacity="1"
     objecttolerance="10"
     gridtolerance="10"
     guidetolerance="10"
     inkscape:pageopacity="0"
     inkscape:pageshadow="2"
     inkscape:window-width="1853"
     inkscape:window-height="1025"
     id="namedview53"
     showgrid="false"
     inkscape:zoom="0.25914908"
     inkscape:cx="550.2059"
     inkscape:cy="432.3229"
     inkscape:window-x="1987"
     inkscape:window-y="27"
     inkscape:window-maximized="1"
     inkscape:current-layer="svg8" />
  <defs
     id="defs2" />
  <metadata
     id="metadata5">
    <rdf:RDF>
      <cc:Work
         rdf:about="">
        <dc:format>image/svg+xml</dc:format>
        <dc:type
           rdf:resource="http://purl.org/dc/dcmitype/StillImage" />
        <dc:title></dc:title>
      </cc:Work>
    </rdf:RDF>
  </metadata>
  <g
     id="g4711"
     transform="translate(-5.6591332,285.52663)"
     style="fill:#ffffff">
    <path
       d="m 126.02544,-245.03401 h 10.62196 v -40.43867 h -10.62196 z"
       style="font-style:normal;font-variant:normal;font-weight:bold;font-stretch:normal;font-size:42.33333206px;line-height:1.10000002;font-family:'Big John';-inkscape-font-specification:'Big John Bold';letter-spacing:0px;word-spacing:0px;fill:#ffffff;fill-opacity:1;stroke:none;stroke-width:0.25211492"
       id="path1104-3"
       inkscape:connector-curvature="0" />
    <path
       d="m 178.90086,-245.03401 v -40.43867 H 168.2789 v 19.08706 l -19.14091,-19.08706 h -4.31351 v 40.43867 h 10.62195 v -19.14091 l 19.08706,19.14091 z"
       style="font-style:normal;font-variant:normal;font-weight:bold;font-stretch:normal;font-size:42.33333206px;line-height:1.10000002;font-family:'Big John';-inkscape-font-specification:'Big John Bold';letter-spacing:0px;word-spacing:0px;fill:#ffffff;fill-opacity:1;stroke:none;stroke-width:0.25211492"
       id="path1106-7"
       inkscape:connector-curvature="0" />
    <path
       d="m 217.06808,-273.07149 c 0,-6.90155 -6.83563,-12.40119 -15.33054,-12.40119 -8.49537,0 -15.26469,5.55358 -15.26469,12.45504 0,6.90165 6.76932,12.40129 15.26469,12.40129 2.05712,0 3.78279,1.40191 3.78279,3.07335 0,1.67144 -1.72567,3.0195 -3.78279,3.0195 -2.05739,0 -3.71656,-1.34806 -3.71656,-3.07335 h -11.61453 c 0,7.11724 6.83572,12.56284 15.33109,12.56284 8.49491,0 15.33054,-5.49965 15.33054,-12.4011 0,-2.96556 -1.19457,-5.66138 -3.31816,-7.81824 -2.78753,-2.91161 -7.16793,-4.79864 -12.01238,-4.79864 -2.05739,0 -3.71656,-1.34806 -3.71656,-3.0195 0,-1.67144 1.65917,-3.07335 3.71656,-3.07335 2.05712,0 3.78279,1.40191 3.78279,3.07335 z"
       style="font-style:normal;font-variant:normal;font-weight:bold;font-stretch:normal;font-size:42.33333206px;line-height:1.10000002;font-family:'Big John';-inkscape-font-specification:'Big John Bold';letter-spacing:0px;word-spacing:0px;fill:#ffffff;fill-opacity:1;stroke:none;stroke-width:0.27970961"
       id="path1108-5"
       inkscape:connector-curvature="0" />
    <path
       d="m 223.74197,-274.95862 h 10.51406 v 29.9247 h 10.62195 v -29.9247 h 10.72975 v -10.56801 h -31.86576 z"
       style="font-style:normal;font-variant:normal;font-weight:bold;font-stretch:normal;font-size:42.33333206px;line-height:1.10000002;font-family:'Big John';-inkscape-font-specification:'Big John Bold';letter-spacing:0px;word-spacing:0px;fill:#ffffff;fill-opacity:1;stroke:none;stroke-width:0.25211492"
       id="path1110-2"
       inkscape:connector-curvature="0" />
    <path
       d="m 262.88338,-245.03392 h 10.62194 v -40.43876 h -10.62194 z"
       style="font-style:normal;font-variant:normal;font-weight:bold;font-stretch:normal;font-size:42.33333206px;line-height:1.10000002;font-family:'Big John';-inkscape-font-specification:'Big John Bold';letter-spacing:0px;word-spacing:0px;fill:#ffffff;fill-opacity:1;stroke:none;stroke-width:0.25211492"
       id="path1112-2"
       inkscape:connector-curvature="0" />
    <path
       d="m 289.60842,-245.03392 2.42629,-5.28405 h 16.55288 l 2.48024,5.28405 h 10.62195 l -19.0332,-40.43876 h -4.79873 l -18.87138,40.43876 z m 10.72967,-23.13094 4.09772,8.89647 h -8.2495 z"
       style="font-style:normal;font-variant:normal;font-weight:bold;font-stretch:normal;font-size:42.33333206px;line-height:1.10000002;font-family:'Big John';-inkscape-font-specification:'Big John Bold';letter-spacing:0px;word-spacing:0px;fill:#ffffff;fill-opacity:1;stroke:none;stroke-width:0.25211492"
       id="path1114-8"
       inkscape:connector-curvature="0" />
    <path
       d="m 358.13172,-279.59562 c -3.66637,-3.66646 -8.68069,-5.87706 -14.23437,-5.87706 -11.16113,0 -20.21943,9.0583 -20.21943,20.21933 0,11.16112 9.0583,20.21943 20.21943,20.21943 5.60752,0 10.6758,-2.31849 14.34227,-5.98496 l -7.54861,-7.44071 c -1.67144,1.72539 -4.04389,2.69592 -6.79366,2.69592 -5.49976,0 -9.48959,-3.98994 -9.48959,-9.48968 0,-5.49964 3.98983,-9.48958 9.48959,-9.48958 2.74977,0 5.12222,0.97053 6.79366,2.64198 z"
       style="font-style:normal;font-variant:normal;font-weight:bold;font-stretch:normal;font-size:42.33333206px;line-height:1.10000002;font-family:'Big John';-inkscape-font-specification:'Big John Bold';letter-spacing:0px;word-spacing:0px;fill:#ffffff;fill-opacity:1;stroke:none;stroke-width:0.25211492"
       id="path1116-9"
       inkscape:connector-curvature="0" />
    <path
       d="m 124.07,-225.28667 h 4.07627 v 17.61329 H 124.07 Z"
       style="font-style:normal;font-variant:normal;font-weight:bold;font-stretch:normal;font-size:26.26019859px;line-height:1.10000002;font-family:Montserrat;-inkscape-font-specification:'Montserrat Bold';letter-spacing:0px;word-spacing:0px;fill:#ffffff;fill-opacity:1;stroke:none;stroke-width:0.25211492"
       id="path973"
       inkscape:connector-curvature="0" />
    <path
       d="m 148.48021,-225.28667 v 17.61329 h -3.34653 l -8.78149,-10.69373 v 10.69373 h -4.02588 v -17.61329 h 3.37164 l 8.75638,10.69382 v -10.69382 z"
       style="font-style:normal;font-variant:normal;font-weight:bold;font-stretch:normal;font-size:26.26019859px;line-height:1.10000002;font-family:Montserrat;-inkscape-font-specification:'Montserrat Bold';letter-spacing:0px;word-spacing:0px;fill:#ffffff;fill-opacity:1;stroke:none;stroke-width:0.25211492"
       id="path975"
       inkscape:connector-curvature="0" />
    <path
       d="m 158.45923,-207.37137 q -2.08844,0 -4.05108,-0.55363 -1.93743,-0.57864 -3.12001,-1.4845 l 1.38389,-3.06981 q 1.13228,0.83036 2.69229,1.33359 1.5601,0.50324 3.12011,0.50324 1.73612,0 2.56647,-0.50324 0.83036,-0.52834 0.83036,-1.38389 0,-0.62904 -0.50324,-1.03157 -0.47803,-0.42783 -1.25808,-0.67945 -0.75485,-0.25161 -2.06324,-0.55354 -2.01304,-0.47803 -3.29622,-0.95616 -1.28329,-0.47803 -2.21425,-1.53481 -0.90586,-1.05686 -0.90586,-2.81818 0,-1.53491 0.83035,-2.76779 0.83036,-1.25809 2.49107,-1.98783 1.68581,-0.72965 4.10138,-0.72965 1.68581,0 3.29622,0.40253 1.61031,0.40262 2.81809,1.15747 l -1.25809,3.09491 q -2.44066,-1.38389 -4.88142,-1.38389 -1.71102,0 -2.54138,0.55354 -0.80515,0.55363 -0.80515,1.45939 0,0.90586 0.93096,1.35879 0.95617,0.42773 2.8937,0.85546 2.01293,0.47813 3.29612,0.95617 1.28329,0.47813 2.18915,1.5097 0.93096,1.03167 0.93096,2.79299 0,1.5097 -0.85546,2.76778 -0.83036,1.23299 -2.51627,1.96264 -1.68581,0.72974 -4.10137,0.72974 z"
       style="font-style:normal;font-variant:normal;font-weight:bold;font-stretch:normal;font-size:26.26019859px;line-height:1.10000002;font-family:Montserrat;-inkscape-font-specification:'Montserrat Bold';letter-spacing:0px;word-spacing:0px;fill:#ffffff;fill-opacity:1;stroke:none;stroke-width:0.25211492"
       id="path977"
       inkscape:connector-curvature="0" />
    <path
       d="m 172.14495,-221.96525 h -5.63628 v -3.32142 h 15.34883 v 3.32142 h -5.63628 v 14.29187 h -4.07627 z"
       style="font-style:normal;font-variant:normal;font-weight:bold;font-stretch:normal;font-size:26.26019859px;line-height:1.10000002;font-family:Montserrat;-inkscape-font-specification:'Montserrat Bold';letter-spacing:0px;word-spacing:0px;fill:#ffffff;fill-opacity:1;stroke:none;stroke-width:0.25211492"
       id="path979"
       inkscape:connector-curvature="0" />
    <path
       d="m 184.02614,-225.28667 h 4.07617 v 17.61329 h -4.07617 z"
       style="font-style:normal;font-variant:normal;font-weight:bold;font-stretch:normal;font-size:26.26019859px;line-height:1.10000002;font-family:Montserrat;-inkscape-font-specification:'Montserrat Bold';letter-spacing:0px;word-spacing:0px;fill:#ffffff;fill-opacity:1;stroke:none;stroke-width:0.25211492"
       id="path981"
       inkscape:connector-curvature="0" />
    <path
       d="m 195.93081,-221.96525 h -5.63629 v -3.32142 h 15.34874 v 3.32142 h -5.63618 v 14.29187 h -4.07627 z"
       style="font-style:normal;font-variant:normal;font-weight:bold;font-stretch:normal;font-size:26.26019859px;line-height:1.10000002;font-family:Montserrat;-inkscape-font-specification:'Montserrat Bold';letter-spacing:0px;word-spacing:0px;fill:#ffffff;fill-opacity:1;stroke:none;stroke-width:0.25211492"
       id="path983"
       inkscape:connector-curvature="0" />
    <path
       d="m 215.3424,-207.37137 q -3.77426,0 -5.8879,-2.08844 -2.08844,-2.08844 -2.08844,-5.9634 v -9.86346 h 4.07628 v 9.71245 q 0,4.73052 3.92526,4.73052 1.91232,0 2.9188,-1.13228 1.00647,-1.15747 1.00647,-3.59824 v -9.71245 h 4.02587 v 9.86346 q 0,3.87496 -2.11354,5.9634 -2.08844,2.08844 -5.8628,2.08844 z"
       style="font-style:normal;font-variant:normal;font-weight:bold;font-stretch:normal;font-size:26.26019859px;line-height:1.10000002;font-family:Montserrat;-inkscape-font-specification:'Montserrat Bold';letter-spacing:0px;word-spacing:0px;fill:#ffffff;fill-opacity:1;stroke:none;stroke-width:0.25211492"
       id="path985"
       inkscape:connector-curvature="0" />
    <path
       d="m 230.67591,-221.96525 h -5.63629 v -3.32142 h 15.34873 v 3.32142 h -5.63628 v 14.29187 h -4.07616 z"
       style="font-style:normal;font-variant:normal;font-weight:bold;font-stretch:normal;font-size:26.26019859px;line-height:1.10000002;font-family:Montserrat;-inkscape-font-specification:'Montserrat Bold';letter-spacing:0px;word-spacing:0px;fill:#ffffff;fill-opacity:1;stroke:none;stroke-width:0.25211492"
       id="path987"
       inkscape:connector-curvature="0" />
    <path
       d="m 250.84119,-207.37137 q -2.74268,0 -4.95693,-1.18267 -2.18904,-1.18258 -3.44722,-3.24583 -1.2329,-2.08844 -1.2329,-4.68011 0,-2.59168 1.2329,-4.65501 1.25818,-2.08844 3.44722,-3.27102 2.21425,-1.18258 4.95693,-1.18258 2.7426,0 4.93164,1.18258 2.18914,1.18258 3.44723,3.27102 1.25809,2.06333 1.25809,4.65501 0,2.59167 -1.25809,4.68011 -1.25809,2.06325 -3.44723,3.24583 -2.18904,1.18267 -4.93164,1.18267 z m 0,-3.47233 q 1.56001,0 2.81809,-0.70455 1.25809,-0.72974 1.96264,-2.01293 0.72965,-1.28329 0.72965,-2.9188 0,-1.63551 -0.72965,-2.9188 -0.70455,-1.28328 -1.96264,-1.98783 -1.25808,-0.72965 -2.81809,-0.72965 -1.56009,0 -2.81818,0.72965 -1.25808,0.70455 -1.98773,1.98783 -0.70456,1.28329 -0.70456,2.9188 0,1.63551 0.70456,2.9188 0.72965,1.28319 1.98773,2.01293 1.25809,0.70455 2.81818,0.70455 z"
       style="font-style:normal;font-variant:normal;font-weight:bold;font-stretch:normal;font-size:26.26019859px;line-height:1.10000002;font-family:Montserrat;-inkscape-font-specification:'Montserrat Bold';letter-spacing:0px;word-spacing:0px;fill:#ffffff;fill-opacity:1;stroke:none;stroke-width:0.25211492"
       id="path989"
       inkscape:connector-curvature="0" />
    <path
       d="m 270.66758,-225.28667 h 4.07618 v 17.61329 h -4.07618 z"
       style="font-style:normal;font-variant:normal;font-weight:bold;font-stretch:normal;font-size:26.26019859px;line-height:1.10000002;font-family:Montserrat;-inkscape-font-specification:'Montserrat Bold';letter-spacing:0px;word-spacing:0px;fill:#ffffff;fill-opacity:1;stroke:none;stroke-width:0.25211492"
       id="path991"
       inkscape:connector-curvature="0" />
    <path
       d="m 295.0777,-225.28667 v 17.61329 h -3.34652 l -8.7815,-10.69373 v 10.69373 h -4.02588 v -17.61329 h 3.37174 l 8.75628,10.69382 v -10.69382 z"
       style="font-style:normal;font-variant:normal;font-weight:bold;font-stretch:normal;font-size:26.26019859px;line-height:1.10000002;font-family:Montserrat;-inkscape-font-specification:'Montserrat Bold';letter-spacing:0px;word-spacing:0px;fill:#ffffff;fill-opacity:1;stroke:none;stroke-width:0.25211492"
       id="path993"
       inkscape:connector-curvature="0" />
    <path
       d="m 302.91799,-221.96525 h -5.63621 v -3.32142 h 15.34873 v 3.32142 h -5.63627 v 14.29187 h -4.07625 z"
       style="font-style:normal;font-variant:normal;font-weight:bold;font-stretch:normal;font-size:26.26019859px;line-height:1.10000002;font-family:Montserrat;-inkscape-font-specification:'Montserrat Bold';letter-spacing:0px;word-spacing:0px;fill:#ffffff;fill-opacity:1;stroke:none;stroke-width:0.25211492"
       id="path995"
       inkscape:connector-curvature="0" />
    <path
       d="m 328.43689,-210.94441 v 3.27103 h -13.63774 v -17.61329 h 13.31061 v 3.27102 h -9.25953 v 3.82465 h 8.17757 v 3.17042 h -8.17757 v 4.07617 z"
       style="font-style:normal;font-variant:normal;font-weight:bold;font-stretch:normal;font-size:26.26019859px;line-height:1.10000002;font-family:Montserrat;-inkscape-font-specification:'Montserrat Bold';letter-spacing:0px;word-spacing:0px;fill:#ffffff;fill-opacity:1;stroke:none;stroke-width:0.25211492"
       id="path997"
       inkscape:connector-curvature="0" />
    <path
       d="m 342.92698,-207.67338 -3.39683,-4.90654 h -0.20129 -3.54785 v 4.90654 h -4.07617 v -17.61329 h 7.62402 q 2.34005,0 4.05106,0.78005 1.73611,0.77995 2.66718,2.21425 0.93097,1.4342 0.93097,3.39683 0,1.96263 -0.95617,3.39683 -0.93096,1.40909 -2.66718,2.16394 l 3.95046,5.66139 z m -0.0757,-11.22216 q 0,-1.4846 -0.95617,-2.26456 -0.95605,-0.80515 -2.7929,-0.80515 h -3.32143 v 6.13942 h 3.32143 q 1.83685,0 2.7929,-0.80516 0.95617,-0.80515 0.95617,-2.26455 z"
       style="font-style:normal;font-variant:normal;font-weight:bold;font-stretch:normal;font-size:26.26019859px;line-height:1.10000002;font-family:Montserrat;-inkscape-font-specification:'Montserrat Bold';letter-spacing:0px;word-spacing:0px;fill:#ffffff;fill-opacity:1;stroke:none;stroke-width:0.25211492"
       id="path999"
       inkscape:connector-curvature="0" />
    <path
       d="m 366.33696,-225.28667 v 17.61329 h -3.34652 l -8.7815,-10.69373 v 10.69373 h -4.02588 v -17.61329 h 3.37174 l 8.75628,10.69382 v -10.69382 z"
       style="font-style:normal;font-variant:normal;font-weight:bold;font-stretch:normal;font-size:26.26019859px;line-height:1.10000002;font-family:Montserrat;-inkscape-font-specification:'Montserrat Bold';letter-spacing:0px;word-spacing:0px;fill:#ffffff;fill-opacity:1;stroke:none;stroke-width:0.25211492"
       id="path1001"
       inkscape:connector-curvature="0" />
    <path
       d="m 382.12846,-211.44764 h -8.17763 l -1.56003,3.77426 h -4.17687 l 7.85052,-17.61329 h 4.02588 l 7.87572,17.61329 h -4.27757 z m -1.28328,-3.09491 -2.79297,-6.74335 -2.7929,6.74335 z"
       style="font-style:normal;font-variant:normal;font-weight:bold;font-stretch:normal;font-size:26.26019859px;line-height:1.10000002;font-family:Montserrat;-inkscape-font-specification:'Montserrat Bold';letter-spacing:0px;word-spacing:0px;fill:#ffffff;fill-opacity:1;stroke:none;stroke-width:0.25211492"
       id="path1003"
       inkscape:connector-curvature="0" />
    <path
       d="m 397.9769,-207.37137 q -2.69228,0 -4.88142,-1.15747 -2.16396,-1.18258 -3.42203,-3.24592 -1.23289,-2.08844 -1.23289,-4.70522 0,-2.61688 1.23289,-4.68012 1.25807,-2.08844 3.42203,-3.24591 2.18914,-1.18258 4.90662,-1.18258 2.28964,0 4.12648,0.80515 1.86203,0.80516 3.12011,2.31495 l -2.61688,2.41547 q -1.78641,-2.06324 -4.42849,-2.06324 -1.63552,0 -2.9187,0.72965 -1.2833,0.70455 -2.01303,1.98783 -0.70447,1.28329 -0.70447,2.9188 0,1.63551 0.70447,2.9188 0.72973,1.28319 2.01303,2.01293 1.28318,0.70455 2.9187,0.70455 2.64208,0 4.42849,-2.08844 l 2.61688,2.41546 q -1.25808,1.53491 -3.12011,2.34006 -1.86193,0.80525 -4.15168,0.80525 z"
       style="font-style:normal;font-variant:normal;font-weight:bold;font-stretch:normal;font-size:26.26019859px;line-height:1.10000002;font-family:Montserrat;-inkscape-font-specification:'Montserrat Bold';letter-spacing:0px;word-spacing:0px;fill:#ffffff;fill-opacity:1;stroke:none;stroke-width:0.25211492"
       id="path1005"
       inkscape:connector-curvature="0" />
    <path
       d="m 407.97679,-225.28667 h 4.07618 v 17.61329 h -4.07618 z"
       style="font-style:normal;font-variant:normal;font-weight:bold;font-stretch:normal;font-size:26.26019859px;line-height:1.10000002;font-family:Montserrat;-inkscape-font-specification:'Montserrat Bold';letter-spacing:0px;word-spacing:0px;fill:#ffffff;fill-opacity:1;stroke:none;stroke-width:0.25211492"
       id="path1007"
       inkscape:connector-curvature="0" />
    <path
       d="m 424.76289,-207.37137 q -2.74258,0 -4.95682,-1.18267 -2.18915,-1.18258 -3.44723,-3.24583 -1.23288,-2.08844 -1.23288,-4.68011 0,-2.59168 1.23288,-4.65501 1.25808,-2.08844 3.44723,-3.27102 2.21424,-1.18258 4.95682,-1.18258 2.7427,0 4.93175,1.18258 2.18913,1.18258 3.44723,3.27102 1.25808,2.06333 1.25808,4.65501 0,2.59167 -1.25808,4.68011 -1.2581,2.06325 -3.44723,3.24583 -2.18905,1.18267 -4.93175,1.18267 z m 0,-3.47233 q 1.56012,0 2.81821,-0.70455 1.25807,-0.72974 1.96262,-2.01293 0.72965,-1.28329 0.72965,-2.9188 0,-1.63551 -0.72965,-2.9188 -0.70455,-1.28328 -1.96262,-1.98783 -1.25809,-0.72965 -2.81821,-0.72965 -1.55999,0 -2.81807,0.72965 -1.25811,0.70455 -1.98783,1.98783 -0.70455,1.28329 -0.70455,2.9188 0,1.63551 0.70455,2.9188 0.72972,1.28319 1.98783,2.01293 1.25808,0.70455 2.81807,0.70455 z"
       style="font-style:normal;font-variant:normal;font-weight:bold;font-stretch:normal;font-size:26.26019859px;line-height:1.10000002;font-family:Montserrat;-inkscape-font-specification:'Montserrat Bold';letter-spacing:0px;word-spacing:0px;fill:#ffffff;fill-opacity:1;stroke:none;stroke-width:0.25211492"
       id="path1009"
       inkscape:connector-curvature="0" />
    <path
       d="m 453.61731,-225.28667 v 17.61329 h -3.34651 l -8.78149,-10.69373 v 10.69373 h -4.02588 v -17.61329 h 3.37163 l 8.75639,10.69382 v -10.69382 z"
       style="font-style:normal;font-variant:normal;font-weight:bold;font-stretch:normal;font-size:26.26019859px;line-height:1.10000002;font-family:Montserrat;-inkscape-font-specification:'Montserrat Bold';letter-spacing:0px;word-spacing:0px;fill:#ffffff;fill-opacity:1;stroke:none;stroke-width:0.25211492"
       id="path1011"
       inkscape:connector-curvature="0" />
    <path
       d="m 469.40873,-211.44764 h -8.17756 l -1.56009,3.77426 h -4.17678 l 7.85042,-17.61329 h 4.02598 l 7.87562,17.61329 h -4.2775 z m -1.28318,-3.09491 -2.793,-6.74335 -2.79297,6.74335 z"
       style="font-style:normal;font-variant:normal;font-weight:bold;font-stretch:normal;font-size:26.26019859px;line-height:1.10000002;font-family:Montserrat;-inkscape-font-specification:'Montserrat Bold';letter-spacing:0px;word-spacing:0px;fill:#ffffff;fill-opacity:1;stroke:none;stroke-width:0.25211492"
       id="path1013"
       inkscape:connector-curvature="0" />
    <path
       d="m 477.07375,-225.28667 h 4.07618 v 14.29196 h 8.83179 v 3.32133 h -12.90797 z"
       style="font-style:normal;font-variant:normal;font-weight:bold;font-stretch:normal;font-size:26.26019859px;line-height:1.10000002;font-family:Montserrat;-inkscape-font-specification:'Montserrat Bold';letter-spacing:0px;word-spacing:0px;fill:#ffffff;fill-opacity:1;stroke:none;stroke-width:0.25211492"
       id="path1015"
       inkscape:connector-curvature="0" />
    <path
       d="m 124.07,-197.60861 h 8.00154 q 2.86839,0 5.05754,1.10718 2.21425,1.08197 3.42203,3.06971 1.23288,1.98783 1.23288,4.62981 0,2.64198 -1.23288,4.62981 -1.20778,1.98773 -3.42203,3.09491 -2.18915,1.08197 -5.05754,1.08197 H 124.07 Z m 7.80022,14.26686 q 2.64198,0 4.20199,-1.4594 1.58521,-1.48459 1.58521,-4.00076 0,-2.51617 -1.58521,-3.97557 -1.56001,-1.4846 -4.20199,-1.4846 h -3.72395 v 10.92033 z"
       style="font-style:normal;font-variant:normal;font-weight:bold;font-stretch:normal;font-size:26.26019859px;line-height:1.10000002;font-family:Montserrat;-inkscape-font-specification:'Montserrat Bold';letter-spacing:0px;word-spacing:0px;fill:#ffffff;fill-opacity:1;stroke:none;stroke-width:0.25211492"
       id="path1017"
       inkscape:connector-curvature="0" />
    <path
       d="m 158.49583,-183.26634 v 3.27112 h -13.63772 v -17.61339 h 13.3106 v 3.27112 h -9.25953 v 3.82456 h 8.17756 v 3.17041 h -8.17756 v 4.07618 z"
       style="font-style:normal;font-variant:normal;font-weight:bold;font-stretch:normal;font-size:26.26019859px;line-height:1.10000002;font-family:Montserrat;-inkscape-font-specification:'Montserrat Bold';letter-spacing:0px;word-spacing:0px;fill:#ffffff;fill-opacity:1;stroke:none;stroke-width:0.25211492"
       id="path1019"
       inkscape:connector-curvature="0" />
    <path
       d="m 180.48932,-183.76957 h -8.17765 l -1.56,3.77435 h -4.17688 l 7.85043,-17.61339 h 4.02597 l 7.87563,17.61339 h -4.27749 z m -1.28328,-3.09491 -2.79299,-6.74336 -2.79299,6.74336 z"
       style="font-style:normal;font-variant:normal;font-weight:bold;font-stretch:normal;font-size:26.26019859px;line-height:1.10000002;font-family:Montserrat;-inkscape-font-specification:'Montserrat Bold';letter-spacing:0px;word-spacing:0px;fill:#ffffff;fill-opacity:1;stroke:none;stroke-width:0.25211492"
       id="path1021"
       inkscape:connector-curvature="0" />
    <path
       d="m 188.15424,-197.60861 h 4.07619 v 14.29197 h 8.83189 v 3.32142 h -12.90808 z"
       style="font-style:normal;font-variant:normal;font-weight:bold;font-stretch:normal;font-size:26.26019859px;line-height:1.10000002;font-family:Montserrat;-inkscape-font-specification:'Montserrat Bold';letter-spacing:0px;word-spacing:0px;fill:#ffffff;fill-opacity:1;stroke:none;stroke-width:0.25211492"
       id="path1023"
       inkscape:connector-curvature="0" />
    <path
       d="m 205.36655,-194.28718 h -5.63628 v -3.32143 H 215.079 v 3.32143 h -5.63629 v 14.29196 h -4.07616 z"
       style="font-style:normal;font-variant:normal;font-weight:bold;font-stretch:normal;font-size:26.26019859px;line-height:1.10000002;font-family:Montserrat;-inkscape-font-specification:'Montserrat Bold';letter-spacing:0px;word-spacing:0px;fill:#ffffff;fill-opacity:1;stroke:none;stroke-width:0.25211492"
       id="path1025"
       inkscape:connector-curvature="0" />
    <path
       d="m 227.96273,-183.76957 h -8.17765 l -1.56,3.77435 h -4.17689 l 7.85054,-17.61339 h 4.02586 l 7.87563,17.61339 h -4.27749 z m -1.28329,-3.09491 -2.79298,-6.74336 -2.793,6.74336 z"
       style="font-style:normal;font-variant:normal;font-weight:bold;font-stretch:normal;font-size:26.26019859px;line-height:1.10000002;font-family:Montserrat;-inkscape-font-specification:'Montserrat Bold';letter-spacing:0px;word-spacing:0px;fill:#ffffff;fill-opacity:1;stroke:none;stroke-width:0.25211492"
       id="path1027"
       inkscape:connector-curvature="0" />
    <path
       d="m 241.41486,-179.6933 q -2.08845,0 -4.05109,-0.55354 -1.93742,-0.57874 -3.12,-1.4846 l 1.38389,-3.06971 q 1.13227,0.83036 2.69228,1.33359 1.5601,0.50324 3.12011,0.50324 1.73613,0 2.56647,-0.50324 0.83036,-0.52843 0.83036,-1.38399 0,-0.62904 -0.50324,-1.03157 -0.47802,-0.42773 -1.25808,-0.67934 -0.75485,-0.25162 -2.06323,-0.55364 -2.01304,-0.47803 -3.29622,-0.95616 -1.2833,-0.47804 -2.21426,-1.53481 -0.90585,-1.05687 -0.90585,-2.81819 0,-1.5348 0.83035,-2.76778 0.83036,-1.25809 2.49106,-1.98774 1.68581,-0.72975 4.10138,-0.72975 1.68581,0 3.29623,0.40263 1.6103,0.40253 2.81809,1.15738 l -1.25809,3.09491 q -2.44077,-1.3839 -4.88143,-1.3839 -1.71102,0 -2.54138,0.55364 -0.80515,0.55354 -0.80515,1.4593 0,0.90586 0.93096,1.35879 0.95617,0.42773 2.8937,0.85546 2.01294,0.47813 3.29612,0.95616 1.28329,0.47813 2.18916,1.50971 0.93096,1.03166 0.93096,2.79298 0,1.50971 -0.85547,2.76779 -0.83035,1.23298 -2.51626,1.96263 -1.68581,0.72975 -4.10137,0.72975 z"
       style="font-style:normal;font-variant:normal;font-weight:bold;font-stretch:normal;font-size:26.26019859px;line-height:1.10000002;font-family:Montserrat;-inkscape-font-specification:'Montserrat Bold';letter-spacing:0px;word-spacing:0px;fill:#ffffff;fill-opacity:1;stroke:none;stroke-width:0.25211492"
       id="path1029"
       inkscape:connector-curvature="0" />
    <path
       d="m 267.25302,-179.6933 q -2.69238,0 -4.88142,-1.15748 -2.16395,-1.18258 -3.42203,-3.24582 -1.23289,-2.08844 -1.23289,-4.70531 0,-2.61688 1.23289,-4.68012 1.25808,-2.08844 3.42203,-3.24592 2.18904,-1.18258 4.90653,-1.18258 2.28976,0 4.12658,0.80516 1.86203,0.80525 3.1201,2.31495 l -2.61687,2.41547 q -1.78652,-2.06324 -4.4285,-2.06324 -1.63552,0 -2.9188,0.72974 -1.28318,0.70445 -2.01292,1.98774 -0.70455,1.28329 -0.70455,2.9188 0,1.63551 0.70455,2.91879 0.72974,1.28329 2.01292,2.01294 1.28328,0.70455 2.9188,0.70455 2.64198,0 4.4285,-2.08845 l 2.61687,2.41557 q -1.25807,1.5348 -3.1201,2.34005 -1.86202,0.80516 -4.15169,0.80516 z"
       style="font-style:normal;font-variant:normal;font-weight:bold;font-stretch:normal;font-size:26.26019859px;line-height:1.10000002;font-family:Montserrat;-inkscape-font-specification:'Montserrat Bold';letter-spacing:0px;word-spacing:0px;fill:#ffffff;fill-opacity:1;stroke:none;stroke-width:0.25211492"
       id="path1031"
       inkscape:connector-curvature="0" />
    <path
       d="m 288.50853,-183.76957 h -8.17766 l -1.55999,3.77435 H 274.594 l 7.85052,-17.61339 h 4.02589 l 7.87562,17.61339 h -4.27747 z m -1.28327,-3.09491 -2.79301,-6.74336 -2.79297,6.74336 z"
       style="font-style:normal;font-variant:normal;font-weight:bold;font-stretch:normal;font-size:26.26019859px;line-height:1.10000002;font-family:Montserrat;-inkscape-font-specification:'Montserrat Bold';letter-spacing:0px;word-spacing:0px;fill:#ffffff;fill-opacity:1;stroke:none;stroke-width:0.25211492"
       id="path1033"
       inkscape:connector-curvature="0" />
    <path
       d="m 303.79749,-197.60861 q 2.34004,0 4.05105,0.78006 1.73622,0.78005 2.66718,2.21424 0.93097,1.4342 0.93097,3.39683 0,1.93753 -0.93097,3.39683 -0.93096,1.4343 -2.66718,2.21425 -1.71101,0.75485 -4.05105,0.75485 h -3.54785 v 4.85633 h -4.07619 v -17.61339 z m -0.22642,9.43574 q 1.8368,0 2.79298,-0.78005 0.95616,-0.80516 0.95616,-2.26456 0,-1.4845 -0.95616,-2.26455 -0.95618,-0.80515 -2.79298,-0.80515 h -3.32143 v 6.11431 z"
       style="font-style:normal;font-variant:normal;font-weight:bold;font-stretch:normal;font-size:26.26019859px;line-height:1.10000002;font-family:Montserrat;-inkscape-font-specification:'Montserrat Bold';letter-spacing:0px;word-spacing:0px;fill:#ffffff;fill-opacity:1;stroke:none;stroke-width:0.25211492"
       id="path1035"
       inkscape:connector-curvature="0" />
    <path
       d="m 325.07185,-183.76957 h -8.17752 l -1.56012,3.77435 h -4.17689 l 7.85052,-17.61339 h 4.02589 l 7.87572,17.61339 h -4.27757 z m -1.28327,-3.09491 -2.79291,-6.74336 -2.79297,6.74336 z"
       style="font-style:normal;font-variant:normal;font-weight:bold;font-stretch:normal;font-size:26.26019859px;line-height:1.10000002;font-family:Montserrat;-inkscape-font-specification:'Montserrat Bold';letter-spacing:0px;word-spacing:0px;fill:#ffffff;fill-opacity:1;stroke:none;stroke-width:0.25211492"
       id="path1037"
       inkscape:connector-curvature="0" />
    <path
       d="m 340.9203,-179.6933 q -2.69229,0 -4.88136,-1.15748 -2.16392,-1.18258 -3.42203,-3.24582 -1.23298,-2.08844 -1.23298,-4.70531 0,-2.61688 1.23298,-4.68012 1.25811,-2.08844 3.42203,-3.24592 2.18907,-1.18258 4.90656,-1.18258 2.28974,0 4.12657,0.80516 1.86191,0.80525 3.12002,2.31495 l -2.61678,2.41547 q -1.78654,-2.06324 -4.4285,-2.06324 -1.63551,0 -2.9188,0.72974 -1.2833,0.70445 -2.01294,1.98774 -0.70456,1.28329 -0.70456,2.9188 0,1.63551 0.70456,2.91879 0.72964,1.28329 2.01294,2.01294 1.28329,0.70455 2.9188,0.70455 2.64196,0 4.4285,-2.08845 l 2.61678,2.41557 q -1.25811,1.5348 -3.12002,2.34005 -1.86203,0.80516 -4.15177,0.80516 z"
       style="font-style:normal;font-variant:normal;font-weight:bold;font-stretch:normal;font-size:26.26019859px;line-height:1.10000002;font-family:Montserrat;-inkscape-font-specification:'Montserrat Bold';letter-spacing:0px;word-spacing:0px;fill:#ffffff;fill-opacity:1;stroke:none;stroke-width:0.25211492"
       id="path1039"
       inkscape:connector-curvature="0" />
    <path
       d="m 350.92019,-197.60861 h 4.07628 v 17.61339 h -4.07628 z"
       style="font-style:normal;font-variant:normal;font-weight:bold;font-stretch:normal;font-size:26.26019859px;line-height:1.10000002;font-family:Montserrat;-inkscape-font-specification:'Montserrat Bold';letter-spacing:0px;word-spacing:0px;fill:#ffffff;fill-opacity:1;stroke:none;stroke-width:0.25211492"
       id="path1041"
       inkscape:connector-curvature="0" />
    <path
       d="m 359.17651,-197.60861 h 8.00144 q 2.8685,0 5.05755,1.10718 2.21425,1.08197 3.42203,3.06971 1.23288,1.98783 1.23288,4.62981 0,2.64198 -1.23288,4.62981 -1.20778,1.98773 -3.42203,3.09491 -2.18905,1.08197 -5.05755,1.08197 h -8.00144 z m 7.80013,14.26686 q 2.64198,0 4.20207,-1.4594 1.58523,-1.48459 1.58523,-4.00076 0,-2.51617 -1.58523,-3.97557 -1.56009,-1.4846 -4.20207,-1.4846 h -3.72394 v 10.92033 z"
       style="font-style:normal;font-variant:normal;font-weight:bold;font-stretch:normal;font-size:26.26019859px;line-height:1.10000002;font-family:Montserrat;-inkscape-font-specification:'Montserrat Bold';letter-spacing:0px;word-spacing:0px;fill:#ffffff;fill-opacity:1;stroke:none;stroke-width:0.25211492"
       id="path1043"
       inkscape:connector-curvature="0" />
    <path
       d="m 391.31844,-183.76957 h -8.17766 l -1.55999,3.77435 h -4.1769 l 7.85054,-17.61339 h 4.02586 l 7.87565,17.61339 h -4.2775 z m -1.2833,-3.09491 -2.79298,-6.74336 -2.79298,6.74336 z"
       style="font-style:normal;font-variant:normal;font-weight:bold;font-stretch:normal;font-size:26.26019859px;line-height:1.10000002;font-family:Montserrat;-inkscape-font-specification:'Montserrat Bold';letter-spacing:0px;word-spacing:0px;fill:#ffffff;fill-opacity:1;stroke:none;stroke-width:0.25211492"
       id="path1045"
       inkscape:connector-curvature="0" />
    <path
       d="m 398.98336,-197.60861 h 8.00144 q 2.86851,0 5.05755,1.10718 2.21424,1.08197 3.42203,3.06971 1.23299,1.98783 1.23299,4.62981 0,2.64198 -1.23299,4.62981 -1.20779,1.98773 -3.42203,3.09491 -2.18904,1.08197 -5.05755,1.08197 h -8.00144 z m 7.80023,14.26686 q 2.64198,0 4.20197,-1.4594 1.58522,-1.48459 1.58522,-4.00076 0,-2.51617 -1.58522,-3.97557 -1.55999,-1.4846 -4.20197,-1.4846 h -3.72394 v 10.92033 z"
       style="font-style:normal;font-variant:normal;font-weight:bold;font-stretch:normal;font-size:26.26019859px;line-height:1.10000002;font-family:Montserrat;-inkscape-font-specification:'Montserrat Bold';letter-spacing:0px;word-spacing:0px;fill:#ffffff;fill-opacity:1;stroke:none;stroke-width:0.25211492"
       id="path1047"
       inkscape:connector-curvature="0" />
    <path
       d="m 433.4092,-183.26634 v 3.27112 h -13.63781 v -17.61339 h 13.31067 v 3.27112 h -9.25962 v 3.82456 h 8.17767 v 3.17041 h -8.17767 v 4.07618 z"
       style="font-style:normal;font-variant:normal;font-weight:bold;font-stretch:normal;font-size:26.26019859px;line-height:1.10000002;font-family:Montserrat;-inkscape-font-specification:'Montserrat Bold';letter-spacing:0px;word-spacing:0px;fill:#ffffff;fill-opacity:1;stroke:none;stroke-width:0.25211492"
       id="path1049"
       inkscape:connector-curvature="0" />
    <path
       d="m 442.46434,-179.6933 q -2.08845,0 -4.05108,-0.55354 -1.93751,-0.57874 -3.12009,-1.4846 l 1.38387,-3.06971 q 1.13229,0.83036 2.69238,1.33359 1.56003,0.50324 3.12002,0.50324 1.73621,0 2.56658,-0.50324 0.83035,-0.52843 0.83035,-1.38399 0,-0.62904 -0.50334,-1.03157 -0.47802,-0.42773 -1.25807,-0.67934 -0.75486,-0.25162 -2.06325,-0.55364 -2.01293,-0.47803 -3.29622,-0.95616 -1.28327,-0.47804 -2.21424,-1.53481 -0.90577,-1.05687 -0.90577,-2.81819 0,-1.5348 0.83027,-2.76778 0.83035,-1.25809 2.49107,-1.98774 1.68581,-0.72975 4.10137,-0.72975 1.68582,0 3.29621,0.40263 1.61032,0.40253 2.8181,1.15738 l -1.25808,3.09491 q -2.44068,-1.3839 -4.88135,-1.3839 -1.71102,0 -2.54136,0.55364 -0.80524,0.55354 -0.80524,1.4593 0,0.90586 0.93104,1.35879 0.95616,0.42773 2.89359,0.85546 2.01296,0.47813 3.29623,0.95616 1.28329,0.47813 2.18905,1.50971 0.93097,1.03166 0.93097,2.79298 0,1.50971 -0.85547,2.76779 -0.83035,1.23298 -2.51616,1.96263 -1.68591,0.72975 -4.10138,0.72975 z"
       style="font-style:normal;font-variant:normal;font-weight:bold;font-stretch:normal;font-size:26.26019859px;line-height:1.10000002;font-family:Montserrat;-inkscape-font-specification:'Montserrat Bold';letter-spacing:0px;word-spacing:0px;fill:#ffffff;fill-opacity:1;stroke:none;stroke-width:0.25211492"
       id="path1051"
       inkscape:connector-curvature="0" />
    <path
       id="path1067-2-2-9-2-4-9-9"
       d="m 5.7886155,-283.47767 v 101.40694 H 107.19566 v -101.40694 z m 23.6465415,3.51641 h 54.101104 c -3.843244,2.8569 -7.748099,7.20041 -10.239644,11.41907 -3.786808,6.41154 -4.819243,11.98918 -4.072345,22.0001 0.240024,3.21881 0.2291,3.69674 -0.112106,5.00513 -0.208116,0.79567 -0.781776,2.15159 -1.274087,3.01328 -0.818369,1.4317 -1.521105,2.40914 -4.742014,6.59407 -3.572559,4.64159 -3.191588,7.14924 1.288556,8.48359 1.573708,0.46865 2.406555,1.16419 2.797395,2.33652 0.276434,0.82901 0.09582,1.58789 -0.697648,2.94303 -0.310823,0.53026 -0.564941,1.21162 -0.564941,1.51411 0,0.70043 0.708955,1.60888 1.38812,1.77943 l 0.524879,0.13194 -0.556509,1.04346 c -0.734346,1.37699 -0.576812,1.9129 0.912567,3.10123 1.628133,1.29919 1.963015,1.97566 1.783357,3.60198 -0.540219,4.8843 -0.434245,5.6334 1.023342,7.21468 1.148269,1.24572 2.322993,1.91836 4.067256,2.32952 1.81584,0.42782 3.315769,0.42389 6.35472,-0.0182 3.267285,-0.47439 6.559195,-0.48924 7.597666,-0.0345 0.438366,0.19211 1.279836,0.93518 1.89144,1.67 1.998947,2.40186 3.401716,5.21075 4.33498,8.67811 0.163848,0.60911 0.281321,1.0835 0.36564,1.56652 H 17.365108 c 0.08528,-0.48302 0.201888,-0.95741 0.365736,-1.56652 0.932976,-3.46736 2.335937,-6.27625 4.334789,-8.67811 0.611508,-0.73482 1.45317,-1.47789 1.891439,-1.67 1.038376,-0.45504 4.33019,-0.44029 7.597465,0.0345 3.038951,0.44162 4.538985,0.44555 6.355103,0.0182 1.744177,-0.41116 2.918422,-1.0838 4.066691,-2.32952 1.457779,-1.58128 1.56404,-2.33038 1.023715,-7.21468 -0.179552,-1.62632 0.155225,-2.30279 1.783549,-3.60198 1.489293,-1.18833 1.647105,-1.72424 0.91228,-3.10123 l -0.556212,-1.04346 0.5244,-0.13194 c 0.679443,-0.17055 1.388311,-1.079 1.388311,-1.77943 0,-0.30249 -0.254405,-0.98385 -0.56495,-1.51411 -0.793849,-1.35514 -0.973881,-2.11402 -0.697648,-2.94303 0.391032,-1.17233 1.223888,-1.86787 2.797309,-2.33652 4.480422,-1.33435 4.861297,-3.842 1.288938,-8.48359 -3.220909,-4.18493 -3.92374,-5.16237 -4.742109,-6.59407 -0.492311,-0.86169 -1.06598,-2.21761 -1.274096,-3.01328 -0.34158,-1.30839 -0.352609,-1.78632 -0.112097,-5.00513 0.746697,-10.01092 -0.285537,-15.58856 -4.072642,-22.0001 -2.491737,-4.21856 -6.396208,-8.56217 -10.239357,-11.41907 z"
       style="opacity:1;fill:#ffffff;fill-opacity:1;stroke:none;stroke-width:4.90614367;stroke-linecap:butt;stroke-linejoin:miter;stroke-miterlimit:4;stroke-dasharray:none;stroke-opacity:0.30660376"
       inkscape:connector-curvature="0" />
  </g>
</svg>
